MoBL_ARMS_module2_4_allmuscles_shoulder_states	
version=1	
nRows=335	
nColumns=2	
inDegrees=yes	
	
# SIMM Motion File Header:	
name MoBL_ARMS_module2_4_allmuscles_shoulder_states	
datacolumns 2	
datarows 335	
otherdata 1	
range 4.262198378 4.421012037	
endheader	
time	shoulder_elv
4.262198378	63.09406331
4.262683811	63.08005509
4.263014179	63.0704966
4.263344547	63.0609179
4.26454816	63.02585017
4.264951942	63.01402626
4.265464163	62.99898407
4.265898657	62.98618697
4.266505844	62.96824608
4.266642862	62.96418831
4.26677988	62.96012713
4.267464969	62.93977042
4.268017376	62.9232947
4.268462011	62.90999357
4.268685111	62.90330625
4.268908211	62.89661004
4.269852938	62.86815652
4.270103985	62.86056879
4.270355032	62.8529699
4.271610267	62.81480896
4.272865501	62.77637215
4.273589086	62.75409081
4.274142746	62.73698099
4.274485332	62.72636764
4.274827918	62.71573416
4.275497332	62.69489856
4.276024162	62.67844732
4.276263987	62.67094278
4.276503812	62.66342853
4.276972903	62.64870285
4.277371996	62.63614544
4.277771089	62.62356136
4.278093199	62.6133853
4.278415309	62.60319194
4.280025859	62.55196763
4.280334504	62.54210232
4.280643149	62.5322214
4.28158271	62.50204692
4.281993045	62.48882392
4.282154083	62.48362704
4.282315121	62.47842598
4.283120311	62.45235814
4.283516827	62.43948287
4.283679423	62.43419594
4.28384202	62.4289048
4.284655002	62.40238614
4.285045119	62.3896238
4.285197749	62.38462409
4.285350379	62.37962071
4.286113531	62.35454904
4.286769593	62.3329229
4.287425656	62.31122992
4.288010616	62.29183196
4.288485978	62.27602974
4.288632221	62.27116127
4.288778465	62.26628953
4.289509685	62.24188207
4.290066423	62.22324437
4.290450623	62.21035545
4.290834823	62.19744438
4.291460725	62.17636369
4.291961502	62.15945543
4.292226947	62.15047788
4.292446902	62.14303099
4.292666856	62.13557697
4.293766628	62.09820082
4.294172389	62.08436649
4.294713285	62.06588777
4.295158397	62.05064982
4.295475195	62.03978729
4.295791992	62.02891042
4.297375982	61.97431317
4.29797244	61.95366315
4.298142555	61.94776451
4.29831267	61.94186186
4.299163243	61.91228866
4.299568196	61.89817414
4.299745635	61.89198244
4.299923075	61.88578644
4.300810274	61.85474231
4.301104128	61.8444366
4.301397981	61.83411924
4.302867247	61.78235963
4.303204146	61.77045103
4.303541044	61.75852749
4.304086275	61.73919913
4.304536322	61.72321588
4.304986369	61.70720635
4.305604104	61.68518921
4.306099747	61.66748833
4.306337403	61.65898981
4.306575059	61.65048411
4.307045647	61.63362074
4.307445817	61.61925884
4.307845986	61.60487687
4.30798913	61.59972747
4.308132273	61.59457552
4.308847991	61.56877761
4.309397132	61.54894107
4.309771535	61.5353954
4.310145937	61.52183259
4.310785672	61.49861868
4.311294015	61.48013739
4.311570925	61.47005702
4.312066557	61.45199158
4.312557688	61.43406139
4.313048819	61.41610272
4.313540124	61.39810934
4.313876902	61.38575903
4.314213679	61.37339549
4.315330855	61.33228863
4.315770788	61.31606189
4.315898248	61.31135644
4.316025708	61.30664915
4.316663009	61.28308507
4.317169691	61.26431796
4.317420893	61.25500293
4.31772894	61.24357038
4.317980669	61.23422012
4.318232398	61.22486283
4.318585724	61.21171715
4.319074696	61.19350197
4.319385081	61.18192593
4.319866439	61.16395252
4.320347796	61.1459539
4.32104445	61.11986086
4.321589181	61.09942185
4.322037947	61.08255987
4.322486713	61.06567651
4.324730542	60.98094423
4.324923558	60.97363122
4.325116573	60.96631439
4.326081651	60.92967348
4.326460663	60.91525791
4.326971161	60.89581851
4.327395492	60.87964052
4.327649676	60.86994092
4.327903861	60.86023494
4.328895705	60.82230086
4.329193654	60.81088673
4.329491603	60.79946393
4.33098135	60.74222182
4.331265438	60.73128194
4.331549527	60.72033437
4.332969969	60.66548284
4.333486964	60.64547204
4.333858899	60.63106071
4.334230833	60.61663662
4.334941576	60.58903805
4.335490584	60.56768839
4.335824232	60.5547003
4.336157881	60.54170214
4.337826124	60.47656306
4.338724898	60.4413678
4.339280456	60.41957757
4.339539878	60.40939337
4.339803734	60.39902915
4.34006582	60.38872859
4.340336551	60.37808208
4.340529868	60.37047609
4.340723185	60.36286692
4.341689767	60.32477386
4.34265635	60.28660269
4.343038089	60.27150625
4.34359936	60.24928816
4.344160632	60.22704433
4.344852369	60.19959495
4.345329186	60.18065159
4.345987029	60.15448659
4.346290596	60.14240093
4.346594164	60.13030799
4.347173768	60.10719877
4.347643595	60.0884473
4.347934564	60.0768257
4.348225533	60.06519754
4.34968038	60.00695974
4.349972419	59.99525005
4.350264458	59.98353392
4.351724654	59.92485826
4.352030178	59.9125614
4.352335702	59.9002577
4.353064269	59.87089044
4.353691207	59.84558916
4.354318144	59.82025971
4.355462834	59.77394072
4.356181681	59.74480655
4.356732225	59.7224695
4.357182648	59.70417925
4.357633071	59.6858752
4.358141779	59.66518617
4.358485608	59.65119294
4.358829437	59.63719179
4.359513719	59.60930366
4.360047115	59.58754359
4.360301999	59.57713899
4.360535803	59.56759115
4.360769606	59.55803976
4.361271384	59.53752918
4.361926528	59.51072525
4.362193052	59.49981309
4.36261541	59.48251146
4.363037767	59.46519855
4.363653858	59.43992418
4.363978939	59.42657853
4.36430402	59.41322623
4.365163648	59.37788655
4.365697613	59.35591204
4.365853174	59.34950688
4.366008735	59.34310022
4.366786539	59.31104481
4.367205767	59.29375207
4.367445356	59.28386449
4.367684945	59.27397344
4.367987576	59.2614749
4.368290207	59.24897082
4.36980336	59.18636884
4.369950488	59.18027465
4.370097616	59.17417917
4.370833258	59.14368284
4.371220913	59.1275998
4.371741919	59.10597058
4.372040453	59.09357007
4.372338987	59.08116437
4.373831659	59.01905983
4.374577995	58.9879605
4.374920022	58.97369808
4.375420199	58.95282912
4.375881076	58.93358766
4.376059505	58.92613517
4.376237935	58.91868092
4.37713008	58.88138367
4.377266918	58.8756592
4.377403755	58.8699337
4.378087942	58.84129115
4.378522025	58.82310592
4.378728007	58.81447312
4.378933988	58.80583806
4.379433301	58.78489688
4.379748817	58.7716574
4.380064332	58.75841268
4.380752317	58.72951456
4.381301316	58.70643696
4.381463254	58.69962684
4.381625191	58.69281536
4.382434879	58.65873807
4.38277907	58.64424213
4.383286633	58.6228548
4.383794196	58.60145462
4.384309619	58.57971005
4.384733805	58.56180484
4.385157991	58.54389078
4.386072981	58.5052198
4.38694939	58.46814197
4.387148076	58.45973122
4.387346761	58.45131861
4.387883212	58.42859534
4.388322469	58.40997905
4.38844905	58.40461274
4.38857563	58.39924567
4.389208533	58.37239931
4.389710969	58.35107404
4.38985403	58.34499986
4.389997092	58.33892474
4.390712399	58.30853528
4.391284934	58.28419489
4.391479193	58.27593295
4.391673452	58.26766932
4.39224413	58.24338348
4.392544865	58.23057961
4.392845599	58.21777171
4.394349271	58.15367321
4.394537377	58.14564773
4.394725484	58.13762072
4.395666015	58.09746305
4.396606547	58.05726769
4.397253721	58.02958799
4.397760483	58.00790159
4.39798456	57.99830902
4.398208637	57.98871437
4.398627122	57.97078993
4.398895717	57.95928179
4.399045276	57.95287253
4.399194835	57.94646235
4.399942629	57.91439785
4.400472668	57.89165682
4.401002707	57.86890443
4.402054332	57.82372943
4.402341115	57.81140245
4.402627898	57.79907219
4.40325696	57.77201435
4.403758307	57.75043889
4.403950982	57.74214452
4.404143657	57.7338487
4.404910487	57.70081791
4.405152025	57.69040913
4.405393562	57.6799981
4.405749102	57.66466919
4.405932192	57.65677348
4.406115282	57.64887649
4.407030731	57.60937259
4.407604568	57.58459401
4.408021077	57.56660123
4.408253347	57.55656455
4.408540087	57.54417141
4.408728976	57.53600579
4.408917865	57.52783884
4.40986231	57.48698439
4.410108435	57.47633221
4.410405646	57.46346611
4.410616468	57.45433781
4.410827289	57.44520789
4.41124762	57.42700002
4.411532322	57.41466368
4.411621392	57.41080364
4.411754123	57.40505089
4.412090623	57.39046363
4.412427124	57.37587222
4.414109626	57.30285472
4.414370971	57.29150383
4.414632316	57.28015053
4.414938272	57.26685622
4.415244227	57.25355857
4.415852723	57.22710205
4.416332714	57.20622372
4.416538071	57.19728875
4.416743429	57.1883523
4.417770217	57.14364839
4.418009181	57.13323929
4.418248145	57.12282823
4.419101715	57.08562453
4.419405427	57.072381
4.41970914	57.05913433
4.420199907	57.0377226
4.420605972	57.02000031
4.421012037	57.00227243
